<svg width="460" height="460" viewBox="0 0 460 460" fill="none" xmlns="http://www.w3.org/2000/svg">
<mask id="mask0_96_33" style="mask-type:alpha" maskUnits="userSpaceOnUse" x="0" y="0" width="460" height="460">
<circle cx="230" cy="230" r="230" fill="#C4C4C4"/>
</mask>
<g mask="url(#mask0_96_33)">
<path d="M11.0274 576.457C8.84597 578.286 6.61225 581.39 6.84738 584.605C7.22417 590.127 13.4589 590.861 19.0087 590.655C101.433 586.108 156.093 583.635 156.781 583.291C354.853 572.997 394.522 573.055 434.049 549.32C443.755 543.368 450.574 536.951 454.323 530.202C458.842 521.466 458.072 512.115 452.246 505.209C448.379 500.585 442.56 497.449 436.601 494.972C435.516 494.057 435.538 494.028 434.187 494.026C417.975 487.739 400.645 483.658 383.569 481.198C394.771 468.348 399.56 449.225 395.75 431.785C395.28 429.654 392.014 430.326 392.484 432.504C396.402 450.466 390.87 470.524 376.743 483.424C367.018 493.285 352.618 501.037 339.815 506.816C308.09 524.128 300.945 530.066 279.818 540.506C279.727 540.552 279.596 540.643 279.492 540.735C277.911 541.397 247.241 556.507 204.185 569.436C181.816 571.273 159.498 573.658 137.171 575.968C106.578 543.871 107.272 487.246 158.295 441.513C202.726 400.961 264.383 386.237 308.706 343.969C308.976 344.95 308.654 343.88 310.32 348.809C317.007 368.612 321.986 378.322 339.828 385.916C341.821 386.788 343.201 383.722 341.134 382.832C318.12 373.077 318.804 358.818 309.515 336.978C335.126 313.183 321.836 294.547 318.98 278.744C317.388 270.491 318.925 259.964 326.308 255.829C336.45 251.251 351.042 257.569 357.371 228.209C368.02 170.682 369.507 76.6225 366.568 24.633C365.327 2.60653 363.772 -24.8105 343.355 -37.5063C341.605 -38.5844 339.724 -39.669 337.843 -40.7472C337.046 -41.198 336.027 -40.9432 335.557 -40.1264C334.408 -38.1236 336.93 -37.5474 341.592 -34.6639C360.533 -22.883 362.035 3.56704 363.237 24.8224C365.989 73.7617 364.459 195.723 352.468 233.337C343.872 244.789 329.449 237.352 325.903 223.769C323.544 214.872 323.528 221.25 344.253 44.4149C346.464 25.9545 348.126 5.43171 337.088 -9.53463C327.788 16.293 329.042 44.4288 329.068 71.8793C328.982 199.239 305.557 241.856 316.57 264.118C307.968 292.93 347.377 311.632 289.04 348.025C192.848 407.069 109.886 398.227 106.973 398.625C100.337 398.477 94.24 396.744 88.5937 393.554C86.9674 384.552 88.2753 374.959 92.4863 366.858C96.2957 359.507 98.8838 351.619 102.842 344.26C126.802 300.81 162.929 298.735 192.337 281.758C205.729 274.202 205.337 264.913 195.055 258.496C164.651 240.336 127.322 256.758 130.425 246.712C130.825 245.417 132.432 245.035 133.768 244.808C145.149 242.875 198.05 217.746 206.13 208.411C226.778 184.529 173.947 170.906 141.86 175.661C130.003 177.38 120.19 180.42 110.699 174.653C111.283 173.312 110.591 174.762 112.694 170.206C123.2 149.254 138.266 128.131 138.376 126.212C138.78 125.597 139.153 124.966 139.548 124.345C148.277 120.014 154.502 113.235 162.948 111.051C167.218 109.944 171.792 111.954 175.229 109.097C180.385 104.81 181.509 97.444 182.981 91.1051C185.622 79.09 194.453 55.8749 205.74 51.0282C216.339 46.2077 231.835 52.7176 237.52 75.2542C243.819 98.1642 249.534 79.3292 302.358 68.5861C319.335 65.4537 325.566 57.8136 314.612 42.1647C284.35 0.91095 241.138 -13.5775 191.433 12.3554C179.014 18.8993 167.59 27.2 156.48 35.8936C165.951 23.4529 167.301 14.4368 180.202 -1.45768C210.923 -40.2009 256.947 -57.8258 302.325 -49.6923C304.466 -49.2522 305.124 -52.5873 302.926 -52.9855C257.201 -61.2169 209.541 -43.8689 177.603 -3.54858C163.55 13.7464 164.294 21.0218 149.779 39.1517L149.766 39.1452C130.465 63.3359 149.589 79.3778 147.676 99.3045C146.606 109.467 135.072 124.292 135.005 125.63C107.867 170.728 101.317 176.316 102.518 207.94C103.094 223.474 102.444 226.535 99.7753 236.899C90.8379 271.174 96.7113 321.238 81.6704 366.222C78.6012 375.4 75.5649 382.032 78.8489 387.961C80.0816 391.815 83.0052 393.893 85.9942 395.939C94.2315 401.303 103.803 401.521 107.035 401.97C118.741 425.963 100.291 440.561 83.736 504.758C44.4479 505.286 1.91239 505.98 -32.1186 519.172C-64.7844 531.827 -60.93 550.282 -30.2115 558.481C-8.86995 564.208 15.9532 560.917 17.7286 566.512C18.3556 568.537 15.8476 572.262 11.0274 576.457ZM281.66 543.329C296.05 536.131 321.198 520.772 341.513 509.717C361.913 500.738 372.17 492.611 380.736 484.129C397.14 486.323 414.241 490.28 430.18 496.072C438.099 508.903 442.099 525.567 434.716 538.613C426.55 553.039 408.182 557.569 391.759 559.796C335.2 567.47 278.654 564.326 218.998 568.34C247.343 558.852 280.378 544.669 281.66 543.329ZM82.8232 508.121C79.5871 521.108 75.3818 535.622 79.6327 549.399C82.9996 561.913 93.4203 572.877 107.299 578.917C92.4472 580.223 77.5737 581.308 62.674 581.853C56.8089 582.068 48.4357 583.859 43.1159 580.992C38.4052 578.453 34.3672 572.906 33.2895 567.738C32.7833 565.322 32.767 562.792 31.9261 560.473C29.6842 554.295 22.4377 551.552 15.8998 550.917C9.36195 550.283 2.50404 550.942 -3.53419 548.351C-12.812 544.368 -17.5178 533.689 -18.3081 523.619C-18.4705 521.537 -18.537 519.833 -19.9344 518.587C10.8474 509.259 48.5165 508.596 82.8232 508.121Z" fill="#2E60D6"/>
<path d="M357.672 389.118C356.81 388.797 355.83 389.203 355.503 390.065C353.731 394.566 369.576 392.406 383.915 413.072C385.174 414.885 387.917 412.99 386.658 411.164C378.881 399.92 369.437 393.702 357.672 389.118Z" fill="#2E60D6"/>
<path d="M227.587 311.404C216.016 298.057 186.947 306.446 200.316 317.395C211.541 326.587 237.781 323.152 227.587 311.404Z" fill="#2E60D6"/>
<path d="M187.628 335.073C194.124 340.395 209.151 338.386 203.29 331.633C196.64 323.967 179.951 328.785 187.628 335.073Z" fill="#2E60D6"/>
</g>
</svg>
