<svg width="512" height="512" viewBox="0 0 512 512" fill="none" xmlns="http://www.w3.org/2000/svg">
<rect width="512" height="512" fill="#F9FAFB" style="fill:#F9FAFB;fill:color(display-p3 0.9765 0.9804 0.9843);fill-opacity:1;"/>
<mask id="mask0_96_33" style="mask-type:alpha" maskUnits="userSpaceOnUse" x="26" y="26" width="460" height="460">
<circle cx="256" cy="256" r="230" fill="#C4C4C4" style="fill:#C4C4C4;fill:color(display-p3 0.7686 0.7686 0.7686);fill-opacity:1;"/>
</mask>
<g mask="url(#mask0_96_33)">
<path d="M37.0274 602.457C34.846 604.286 32.6123 607.39 32.8474 610.605C33.2242 616.127 39.4589 616.861 45.0087 616.655C127.433 612.108 182.093 609.635 182.781 609.291C380.853 598.997 420.522 599.055 460.049 575.32C469.755 569.368 476.574 562.951 480.323 556.202C484.842 547.466 484.072 538.115 478.246 531.209C474.379 526.585 468.56 523.449 462.601 520.972C461.516 520.057 461.538 520.028 460.187 520.026C443.975 513.739 426.645 509.658 409.569 507.198C420.771 494.348 425.56 475.225 421.75 457.785C421.28 455.654 418.014 456.326 418.484 458.504C422.402 476.466 416.87 496.524 402.743 509.424C393.018 519.285 378.618 527.037 365.815 532.816C334.09 550.128 326.945 556.066 305.818 566.506C305.727 566.552 305.596 566.643 305.492 566.735C303.911 567.397 273.241 582.507 230.185 595.436C207.816 597.273 185.498 599.658 163.171 601.968C132.578 569.871 133.272 513.246 184.295 467.513C228.726 426.961 290.383 412.237 334.706 369.969C334.976 370.95 334.654 369.88 336.32 374.809C343.007 394.612 347.986 404.322 365.828 411.916C367.821 412.788 369.201 409.722 367.134 408.832C344.12 399.077 344.804 384.818 335.515 362.978C361.126 339.183 347.836 320.547 344.98 304.744C343.388 296.491 344.925 285.964 352.308 281.829C362.45 277.251 377.042 283.569 383.371 254.209C394.02 196.682 395.507 102.623 392.568 50.633C391.327 28.6065 389.772 1.18948 369.355 -11.5063C367.605 -12.5844 365.724 -13.669 363.843 -14.7472C363.046 -15.198 362.027 -14.9432 361.557 -14.1264C360.408 -12.1236 362.93 -11.5474 367.592 -8.66393C386.533 3.11704 388.035 29.567 389.237 50.8224C391.989 99.7617 390.459 221.723 378.468 259.337C369.872 270.789 355.449 263.352 351.903 249.769C349.544 240.872 349.528 247.25 370.253 70.4149C372.464 51.9545 374.126 31.4317 363.088 16.4654C353.788 42.293 355.042 70.4288 355.068 97.8793C354.982 225.239 331.557 267.856 342.57 290.118C333.968 318.93 373.377 337.632 315.04 374.025C218.848 433.069 135.886 424.227 132.973 424.625C126.337 424.477 120.24 422.744 114.594 419.554C112.967 410.552 114.275 400.959 118.486 392.858C122.296 385.507 124.884 377.619 128.842 370.26C152.802 326.81 188.929 324.735 218.337 307.758C231.729 300.202 231.337 290.913 221.055 284.496C190.651 266.336 153.322 282.758 156.425 272.712C156.825 271.417 158.432 271.035 159.768 270.808C171.149 268.875 224.05 243.746 232.13 234.411C252.778 210.529 199.947 196.906 167.86 201.661C156.003 203.38 146.19 206.42 136.699 200.653C137.283 199.312 136.591 200.762 138.694 196.206C149.2 175.254 164.266 154.131 164.376 152.212C164.78 151.597 165.153 150.966 165.548 150.345C174.277 146.014 180.502 139.235 188.948 137.051C193.218 135.944 197.792 137.954 201.229 135.097C206.385 130.81 207.509 123.444 208.981 117.105C211.622 105.09 220.453 81.8749 231.74 77.0282C242.339 72.2077 257.835 78.7176 263.52 101.254C269.819 124.164 275.534 105.329 328.358 94.5861C345.335 91.4537 351.566 83.8136 340.612 68.1647C310.35 26.9109 267.138 12.4225 217.433 38.3554C205.014 44.8993 193.59 53.2 182.48 61.8936C191.951 49.4529 193.301 40.4368 206.202 24.5423C236.923 -14.2009 282.947 -31.8258 328.325 -23.6923C330.466 -23.2522 331.124 -26.5873 328.926 -26.9855C283.201 -35.2169 235.541 -17.8689 203.603 22.4514C189.55 39.7464 190.294 47.0218 175.779 65.1517L175.766 65.1452C156.465 89.3359 175.589 105.378 173.676 125.305C172.606 135.467 161.072 150.292 161.005 151.63C133.867 196.728 127.317 202.316 128.518 233.94C129.094 249.474 128.444 252.535 125.775 262.899C116.838 297.174 122.711 347.238 107.67 392.222C104.601 401.4 101.565 408.032 104.849 413.961C106.082 417.815 109.005 419.893 111.994 421.939C120.232 427.303 129.803 427.521 133.035 427.97C144.741 451.963 126.291 466.561 109.736 530.758C70.4479 531.286 27.9124 531.98 -6.1186 545.172C-38.7844 557.827 -34.93 576.282 -4.21145 584.481C17.1301 590.208 41.9532 586.917 43.7286 592.512C44.3556 594.537 41.8476 598.262 37.0274 602.457ZM307.66 569.329C322.05 562.131 347.198 546.772 367.513 535.717C387.913 526.738 398.17 518.611 406.736 510.129C423.14 512.323 440.241 516.28 456.18 522.072C464.099 534.903 468.099 551.567 460.716 564.613C452.55 579.039 434.182 583.569 417.759 585.796C361.2 593.47 304.654 590.326 244.998 594.34C273.343 584.852 306.378 570.669 307.66 569.329ZM108.823 534.121C105.587 547.108 101.382 561.622 105.633 575.399C109 587.913 119.42 598.877 133.299 604.917C118.447 606.223 103.574 607.308 88.674 607.853C82.8089 608.068 74.4357 609.859 69.1159 606.992C64.4052 604.453 60.3672 598.906 59.2895 593.738C58.7833 591.322 58.767 588.792 57.9261 586.473C55.6842 580.295 48.4377 577.552 41.8998 576.917C35.3619 576.283 28.504 576.942 22.4658 574.351C13.188 570.368 8.48221 559.689 7.69192 549.619C7.52945 547.537 7.46304 545.833 6.06562 544.587C36.8474 535.259 74.5165 534.596 108.823 534.121Z" fill="#2E60D6" style="fill:#2E60D6;fill:color(display-p3 0.1804 0.3765 0.8392);fill-opacity:1;"/>
<path d="M383.672 415.118C382.81 414.797 381.83 415.203 381.503 416.065C379.731 420.566 395.576 418.406 409.915 439.072C411.174 440.885 413.917 438.99 412.658 437.164C404.881 425.92 395.437 419.702 383.672 415.118Z" fill="#2E60D6" style="fill:#2E60D6;fill:color(display-p3 0.1804 0.3765 0.8392);fill-opacity:1;"/>
<path d="M253.587 337.404C242.016 324.057 212.947 332.446 226.316 343.395C237.541 352.587 263.781 349.152 253.587 337.404Z" fill="#2E60D6" style="fill:#2E60D6;fill:color(display-p3 0.1804 0.3765 0.8392);fill-opacity:1;"/>
<path d="M213.628 361.073C220.124 366.395 235.151 364.386 229.29 357.633C222.64 349.967 205.951 354.785 213.628 361.073Z" fill="#2E60D6" style="fill:#2E60D6;fill:color(display-p3 0.1804 0.3765 0.8392);fill-opacity:1;"/>
</g>
</svg>
